<svg width="658" height="539" viewBox="0 0 658 539" fill="none" xmlns="http://www.w3.org/2000/svg">
<path d="M16.5255 245.667C-52.2783 109.97 105.585 93.2765 271.805 19.2216C438.025 -54.8333 479.526 103.289 598.025 185.167C716.525 267.044 649.025 452.667 475.025 468.167C301.025 483.667 301.2 566.891 165.025 528.667C28.8512 490.442 102.53 415.287 16.5255 245.667Z" fill="white"/>
<path d="M16.5255 245.667C-52.2783 109.97 105.585 93.2765 271.805 19.2216C438.025 -54.8333 479.526 103.289 598.025 185.167C716.525 267.044 649.025 452.667 475.025 468.167C301.025 483.667 301.2 566.891 165.025 528.667C28.8512 490.442 102.53 415.287 16.5255 245.667Z" fill="url(#paint0_linear_1519_645)" fill-opacity="0.5"/>
<defs>
<linearGradient id="paint0_linear_1519_645" x1="738.961" y1="144.596" x2="415.375" y2="776.069" gradientUnits="userSpaceOnUse">
<stop stop-color="#F7B100"/>
<stop offset="1" stop-color="#D800FF"/>
</linearGradient>
</defs>
</svg>
