<svg width="34" height="33" viewBox="0 0 34 33" fill="none" xmlns="http://www.w3.org/2000/svg">
<path d="M31.9536 0.0752529C31.6912 0.0855289 31.443 0.19684 31.2609 0.385886C31.0788 0.574932 30.9769 0.827058 30.9765 1.08949C30.9765 1.86352 30.8099 3.70321 28.8476 5.88873C26.8854 8.07426 23.0595 10.6159 15.6432 12.4882C7.79776 14.4688 3.97071 19.2982 2.2442 23.5733C0.517688 27.8484 0.788516 31.6475 0.788516 31.6475C0.804551 31.8909 0.90767 32.1205 1.07904 32.2942C1.25041 32.4679 1.4786 32.5743 1.72192 32.5938C1.96525 32.6133 2.20747 32.5447 2.40436 32.4004C2.60124 32.2562 2.73965 32.046 2.7943 31.8082C3.74647 27.7512 5.50787 25.9915 8.3668 24.659C11.2257 23.3265 15.2447 22.5928 20.2069 21.1181C26.535 19.2373 30.0873 15.4121 31.8186 11.4561C33.5042 7.60443 33.5077 3.72988 33.0022 1.13117C33.0022 1.12172 33.0101 1.0988 33.0101 1.08949L33.0002 1.09147C32.9886 1.03243 33.0005 0.936742 32.9883 0.879097C32.9383 0.644693 32.8071 0.435471 32.6178 0.288383C32.4285 0.141296 32.1932 0.0658082 31.9536 0.0752529ZM31.058 6.20432C30.8912 7.63898 30.6096 9.14844 29.9558 10.6423C29.4493 11.7996 28.7599 12.9331 27.8785 14.0026C26.1753 15.3244 22.6107 17.5593 17.0413 18.3652C11.8681 19.1141 6.47233 21.751 3.91635 25.4073C3.89521 25.4294 3.87182 25.4485 3.85081 25.4708C3.98295 25.0546 3.95613 24.768 4.13083 24.3355C4.59069 23.1968 5.20438 22.0237 6.02341 20.8879C8.04167 18.6633 11.4306 16.423 18.491 14.604C26.358 12.5944 29.6642 9.03745 31.058 6.20432Z" fill="white"/>
</svg>
